<svg id="credit-card" xmlns="http://www.w3.org/2000/svg" width="42.565" height="34.633" viewBox="0 0 42.565 34.633">
  <g id="Group_8139" data-name="Group 8139" transform="translate(0 0)">
    <g id="Group_8138" data-name="Group 8138">
      <path id="Path_13332" data-name="Path 13332" d="M40.435,55.194H36.351L35.2,46.543a2.145,2.145,0,0,0-2.394-1.828l-30.961,4.1a2.13,2.13,0,0,0-1.412.821A2.108,2.108,0,0,0,.02,51.213l2.612,19.7A2.125,2.125,0,0,0,5.019,72.75l2.051-.27V77.2A2.13,2.13,0,0,0,9.2,79.33H40.435a2.13,2.13,0,0,0,2.13-2.13V57.324A2.13,2.13,0,0,0,40.435,55.194Zm-5.517,0H29.375l5.448-.722ZM1.425,51.022a.7.7,0,0,1,.141-.52.71.71,0,0,1,.473-.277l30.955-4.1a.72.72,0,0,1,.8.611l.28,2.114L1.706,53.14ZM7.07,71.048l-2.233.295a.71.71,0,0,1-.8-.61h0L2.456,58.765l4.614-.61Zm.094-14.337-4.9.646-.373-2.808,32.371-4.293.213,1.627.158,1.182-16.064,2.13H9.2A2.13,2.13,0,0,0,7.164,56.711ZM41.145,77.2a.71.71,0,0,1-.71.71H9.2a.71.71,0,0,1-.71-.71V57.345c0-.007,0-.014,0-.021a.71.71,0,0,1,.71-.71H40.435a.71.71,0,0,1,.71.71Z" transform="translate(0 -44.698)" fill="#db1c23"/>
      <path id="Path_13333" data-name="Path 13333" d="M293.149,217.384a3.55,3.55,0,0,0,.748-.748,3.55,3.55,0,1,0,0-4.215,3.55,3.55,0,1,0-.748,4.964Zm3.588-4.986a2.13,2.13,0,1,1-2.13,2.13A2.13,2.13,0,0,1,296.737,212.4Zm-5.679,0a2.13,2.13,0,1,1-2.13,2.13A2.13,2.13,0,0,1,291.058,212.4Z" transform="translate(-261.98 -196.223)" fill="#db1c23"/>
      <rect id="Rectangle_304" data-name="Rectangle 304" width="1.42" height="1.42" transform="translate(11.33 15.465)" fill="#db1c23"/>
      <rect id="Rectangle_305" data-name="Rectangle 305" width="8.519" height="1.42" transform="translate(14.17 15.465)" fill="#db1c23"/>
      <rect id="Rectangle_306" data-name="Rectangle 306" width="11.358" height="1.42" transform="translate(11.33 18.305)" fill="#db1c23"/>
      <path id="Path_13334" data-name="Path 13334" d="M153.945,322.981H128.389a.71.71,0,0,0-.71.71v4.259a.71.71,0,0,0,.71.71h25.556a.71.71,0,0,0,.71-.71v-4.259A.71.71,0,0,0,153.945,322.981Zm-.71,4.259H129.1V324.4h24.137Z" transform="translate(-116.349 -298.287)" fill="#db1c23"/>
    </g>
  </g>
</svg>
