<svg xmlns="http://www.w3.org/2000/svg" width="23.372" height="28.046" viewBox="0 0 23.372 28.046">
  <g id="delete" transform="translate(-3728 90)">
    <rect id="Rectangle_276" data-name="Rectangle 276" width="23.372" height="28.046" transform="translate(3728 -90)" fill="none"/>
    <g id="delete-2" data-name="delete" transform="translate(3728.73 -89.27)">
      <path id="Path_13313" data-name="Path 13313" d="M223.014,154.7a.616.616,0,0,0-.616.616v11.638a.616.616,0,0,0,1.232,0V155.319A.616.616,0,0,0,223.014,154.7Zm0,0" transform="translate(-208.703 -145.176)" fill="#db1c23"/>
      <path id="Path_13314" data-name="Path 13314" d="M105.014,154.7a.616.616,0,0,0-.616.616v11.638a.616.616,0,0,0,1.232,0V155.319A.616.616,0,0,0,105.014,154.7Zm0,0" transform="translate(-97.969 -145.176)" fill="#db1c23"/>
      <path id="Path_13315" data-name="Path 13315" d="M1.746,7.827V23a3.4,3.4,0,0,0,.9,2.343,3.032,3.032,0,0,0,2.2.951H16.5a3.032,3.032,0,0,0,2.2-.951A3.4,3.4,0,0,0,19.6,23V7.827A2.352,2.352,0,0,0,19,3.2H15.847v-.77A2.419,2.419,0,0,0,13.409,0H7.941A2.419,2.419,0,0,0,5.5,2.431V3.2H2.349a2.352,2.352,0,0,0-.6,4.626ZM16.5,25.061H4.849A1.95,1.95,0,0,1,2.977,23V7.881H18.372V23A1.95,1.95,0,0,1,16.5,25.061ZM6.734,2.431a1.186,1.186,0,0,1,1.207-1.2h5.468a1.186,1.186,0,0,1,1.207,1.2V3.2H6.734Zm-4.384,2H19a1.108,1.108,0,1,1,0,2.217H2.349a1.108,1.108,0,1,1,0-2.217Zm0,0" transform="translate(0.003 0.002)" fill="#db1c23"/>
      <path id="Path_13316" data-name="Path 13316" d="M164.014,154.7a.616.616,0,0,0-.616.616v11.638a.616.616,0,1,0,1.232,0V155.319A.616.616,0,0,0,164.014,154.7Zm0,0" transform="translate(-153.336 -145.176)" fill="#db1c23"/>
    </g>
  </g>
</svg>
