<svg xmlns="http://www.w3.org/2000/svg" width="24" height="32" viewBox="0 0 24 32">
  <g id="pass-icon" transform="translate(-264.411 -798.835)" opacity="0.35">
    <rect id="Rectangle_297" data-name="Rectangle 297" width="24" height="32" transform="translate(264.411 798.835)" fill="none"/>
    <g id="lock" transform="translate(265.946 799.806)">
      <g id="Group_8132" data-name="Group 8132" transform="translate(0)">
        <g id="Group_8131" data-name="Group 8131">
          <path id="Path_13321" data-name="Path 13321" d="M214.342,281.781l-.389,3.5a.616.616,0,0,0,.613.684h2.465a.616.616,0,0,0,.613-.684l-.389-3.5a2.438,2.438,0,0,0,1.009-1.982,2.465,2.465,0,1,0-4.93,0A2.438,2.438,0,0,0,214.342,281.781Zm1.456-3.215a1.228,1.228,0,0,1,.532,2.337.617.617,0,0,0-.344.623l.356,3.2h-1.088l.356-3.2a.617.617,0,0,0-.344-.623,1.228,1.228,0,0,1,.532-2.337Z" transform="translate(-205.205 -260.545)"/>
          <path id="Path_13322" data-name="Path 13322" d="M84.6,11.468H82.832V8.919C82.832,4,79.136,0,74.593,0s-8.239,4-8.239,8.919v2.548H64.589A.614.614,0,0,0,64,12.1V28.032a2.459,2.459,0,0,0,2.354,2.548H82.832a2.459,2.459,0,0,0,2.354-2.548V12.1A.614.614,0,0,0,84.6,11.468ZM67.531,8.919c0-4.216,3.168-7.645,7.062-7.645S81.655,4.7,81.655,8.919v2.548H80.478V8.919a5.9,5.9,0,1,0-11.77,0v2.548H67.531Zm11.77,0v2.548H69.885V8.919a4.723,4.723,0,1,1,9.416,0Zm4.708,19.113a1.23,1.23,0,0,1-1.177,1.274H66.354a1.23,1.23,0,0,1-1.177-1.274V12.742H84.009Z" transform="translate(-64)"/>
        </g>
      </g>
    </g>
  </g>
</svg>
