<svg xmlns="http://www.w3.org/2000/svg" width="30" height="30" viewBox="0 0 30 30">
  <g id="Group_8238" data-name="Group 8238" transform="translate(-0.168 -0.444)">
    <g id="Icon_feather-shopping-cart" data-name="Icon feather-shopping-cart" transform="translate(3.129 4.326)">
      <path id="Path_3" data-name="Path 3" d="M14.728,31.364A1.364,1.364,0,1,1,13.364,30,1.364,1.364,0,0,1,14.728,31.364Z" transform="translate(-4.36 -9.536)" fill="none" stroke="#db1c23" stroke-linecap="round" stroke-linejoin="round" stroke-width="1.5"/>
      <path id="Path_4" data-name="Path 4" d="M31.228,31.364A1.364,1.364,0,1,1,29.864,30,1.364,1.364,0,0,1,31.228,31.364Z" transform="translate(-9.401 -9.536)" fill="none" stroke="#db1c23" stroke-linecap="round" stroke-linejoin="round" stroke-width="1.5"/>
      <path id="Path_5" data-name="Path 5" d="M1.5,1.5H5.965L8.956,14.9a2.191,2.191,0,0,0,2.232,1.611H22.038A2.191,2.191,0,0,0,24.27,14.9L26.056,6.5H7.081" transform="translate(-1.5 -1.5)" fill="none" stroke="#db1c23" stroke-linecap="round" stroke-linejoin="round" stroke-width="1.5"/>
    </g>
    <rect id="Rectangle_9" data-name="Rectangle 9" width="30" height="30" transform="translate(0.168 0.444)" fill="none"/>
  </g>
</svg>
