<svg xmlns="http://www.w3.org/2000/svg" width="48" height="48" viewBox="0 0 48 48">
  <g id="Group_299" data-name="Group 299" transform="translate(-160.794 -1727.793)">
    <rect id="Rectangle_111" data-name="Rectangle 111" width="48" height="48" rx="4" transform="translate(160.794 1727.793)" fill="#db1c23"/>
    <g id="Group_7" data-name="Group 7" transform="translate(166.974 1733.974)">
      <g id="Icon_feather-shopping-cart" data-name="Icon feather-shopping-cart" transform="translate(3.658 5.07)">
        <path id="Path_3" data-name="Path 3" d="M15.217,31.609A1.609,1.609,0,1,1,13.609,30,1.609,1.609,0,0,1,15.217,31.609Z" transform="translate(-2.991 -5.869)" fill="none" stroke="#fff" stroke-linecap="round" stroke-linejoin="round" stroke-width="1.5"/>
        <path id="Path_4" data-name="Path 4" d="M31.717,31.609A1.609,1.609,0,1,1,30.109,30,1.609,1.609,0,0,1,31.717,31.609Z" transform="translate(-5.978 -5.869)" fill="none" stroke="#fff" stroke-linecap="round" stroke-linejoin="round" stroke-width="1.5"/>
        <path id="Path_5" data-name="Path 5" d="M1.5,1.5H6.765l3.528,15.8a2.583,2.583,0,0,0,2.632,1.9H25.719a2.583,2.583,0,0,0,2.632-1.9l2.106-9.9H8.081" transform="translate(-1.5 -1.5)" fill="none" stroke="#fff" stroke-linecap="round" stroke-linejoin="round" stroke-width="1.5"/>
      </g>
      <rect id="Rectangle_9" data-name="Rectangle 9" width="36" height="36" transform="translate(-0.181 -0.181)" fill="none"/>
    </g>
  </g>
</svg>
