<svg id="trasmission" xmlns="http://www.w3.org/2000/svg" width="39.792" height="39.792" viewBox="0 0 39.792 39.792">
  <rect id="Rectangle_151" data-name="Rectangle 151" width="39.792" height="39.792" fill="none"/>
  <g id="iconfinder_shipping_1954201" transform="translate(2 11)">
    <path id="Path_97" data-name="Path 97" d="M27.881,52.993H37.6v-13a2.147,2.147,0,0,0-2.146-2.147h-16.7a2.146,2.146,0,0,0-2.146,2.147v13H19.16" transform="translate(-15.174 -37.845)" fill="none" stroke="#fff" stroke-linecap="round" stroke-linejoin="round" stroke-miterlimit="10" stroke-width="1.7"/>
    <path id="Path_98" data-name="Path 98" d="M66.2,55.547h2.526V51.335a61.4,61.4,0,0,0-2.149-5.924c-.605-1.463-.96-2.147-2.147-2.147h-8.1V55.547h1.15" transform="translate(-34.086 -40.399)" fill="none" stroke="#fff" stroke-linecap="round" stroke-linejoin="round" stroke-miterlimit="10" stroke-width="1.7"/>
    <line id="Line_51" data-name="Line 51" x2="1.433" transform="translate(0 15.148)" fill="none" stroke="#fff" stroke-linecap="round" stroke-miterlimit="10" stroke-width="1.7"/>
    <line id="Line_52" data-name="Line 52" x2="1.433" transform="translate(34.43 15.148)" fill="none" stroke="#fff" stroke-linecap="round" stroke-miterlimit="10" stroke-width="1.7"/>
    <line id="Line_53" data-name="Line 53" x1="5.002" transform="translate(28.937 9.006)" fill="none" stroke="#fff" stroke-linecap="round" stroke-miterlimit="10" stroke-width="1.7"/>
    <circle id="Ellipse_10" data-name="Ellipse 10" cx="2.683" cy="2.683" r="2.683" transform="translate(5.511 12.465)" fill="none" stroke="#fff" stroke-linecap="round" stroke-miterlimit="10" stroke-width="1.7"/>
    <circle id="Ellipse_11" data-name="Ellipse 11" cx="2.683" cy="2.683" r="2.683" transform="translate(25.127 12.465)" fill="none" stroke="#fff" stroke-linecap="round" stroke-miterlimit="10" stroke-width="1.7"/>
  </g>
</svg>
